 <svg
        xmlns="http://www.w3.org/2000/svg"
        viewBox="0 0 128 32"
        className="h-9 w-auto"
      >
        <defs>
          <path id="5mvtz5jn0a" d="M0 0h11.791v10.66H0z" />
          <path id="zsvw2ks3zc" d="M0 0h39.268v32H0z" />
        </defs>
        <g fill="none" fillRule="evenodd">
          <path
            d="M51.058 21.078v-10.11h2.505v1.649a3.744 3.744 0 0 1 1.589-1.375 5.66 5.66 0 0 1 2.459-.534c2.062 0 3.299.718 3.726 2.153.168.535.245 1.268.245 2.215v5.987h-2.536v-5.36c0-.81-.091-1.39-.29-1.711-.305-.611-.993-.917-2.031-.917a4.1 4.1 0 0 0-1.787.428c-.535.229-.993.61-1.314 1.1v6.475h-2.566zM70.089 17.046a9.473 9.473 0 0 0-1.466-.107 8.813 8.813 0 0 0-2.108.199c-.794.183-1.207.565-1.207 1.176 0 .81.657 1.222 1.986 1.222 1.252 0 2.184-.367 2.81-1.115-.015-.26-.015-.718-.015-1.375m2.673 4.353c-1.268 0-2.032-.428-2.322-1.298-.779.932-2 1.405-3.68 1.405-1.284 0-2.292-.29-2.994-.87a2.794 2.794 0 0 1-1.054-2.276c0-1.482.764-2.444 2.276-2.887.962-.275 2.168-.412 3.604-.412.504 0 .993.046 1.482.122v-.32a1.732 1.732 0 0 0-.413-1.177c-.366-.382-1.054-.565-2.077-.565-1.604 0-2.917.397-3.956 1.207h-.076v-2.291c1.237-.795 2.764-1.207 4.582-1.207 1.466 0 2.566.275 3.299.84.397.305.703.703.886 1.176.183.474.275 1.1.275 1.91 0 .244 0 .687-.016 1.313 0 .626-.015 1.069-.015 1.328 0 .749.03 1.192.107 1.345.107.29.382.427.81.427.274 0 .55-.03.81-.122v2.077c-.352.183-.872.275-1.528.275M84.049 14.572a2.512 2.512 0 0 0-1.237-1.146 4.797 4.797 0 0 0-1.97-.412 4.001 4.001 0 0 0-2.506.779c-.687.52-1.038 1.298-1.038 2.337 0 .901.336 1.573 1.023 2.031a4.439 4.439 0 0 0 2.474.703c.672 0 1.345-.138 1.955-.413a2.645 2.645 0 0 0 1.283-1.1l.016-2.779zm-8.172 7.331h.077c1.176.87 2.688 1.298 4.52 1.298 1.421 0 2.444-.32 3.04-.962.412-.428.611-1.13.611-2.123v-.748c-.29.473-.779.87-1.481 1.206a5.69 5.69 0 0 1-2.414.49c-1.619 0-2.932-.413-3.97-1.238-1.04-.825-1.559-2.031-1.559-3.62a5.61 5.61 0 0 1 .52-2.49 4.27 4.27 0 0 1 1.39-1.695 6.316 6.316 0 0 1 1.817-.9 6.619 6.619 0 0 1 1.97-.291 6.306 6.306 0 0 1 2.368.428c.702.29 1.176.641 1.405 1.084V11.12h2.444v8.874c0 1.436-.26 2.55-.795 3.345-.947 1.39-2.734 2.092-5.33 2.092a10.84 10.84 0 0 1-2.719-.305c-.81-.199-1.435-.458-1.878-.749l-.016-2.474zM95.122 17.046a9.473 9.473 0 0 0-1.466-.107 8.813 8.813 0 0 0-2.108.199c-.794.183-1.207.565-1.207 1.176 0 .81.657 1.222 1.986 1.222 1.252 0 2.184-.367 2.81-1.115-.015-.26-.015-.718-.015-1.375m2.673 4.353c-1.268 0-2.032-.428-2.322-1.298-.764.932-1.985 1.405-3.666 1.405-1.282 0-2.29-.29-2.993-.87a2.794 2.794 0 0 1-1.054-2.276c0-1.482.764-2.444 2.276-2.887.962-.275 2.169-.412 3.604-.412.504 0 .993.046 1.482.122v-.32a1.66 1.66 0 0 0-.413-1.177c-.366-.382-1.053-.565-2.077-.565-1.603 0-2.917.397-3.94 1.207H88.6v-2.291c1.237-.795 2.765-1.207 4.582-1.207 1.466 0 2.566.275 3.3.84.396.305.702.703.885 1.176.183.474.275 1.1.275 1.91 0 .244 0 .687-.015 1.313-.016.626-.016 1.069-.016 1.328 0 .749.03 1.192.107 1.345.107.29.382.427.81.427.275 0 .55-.03.81-.122v2.077c-.367.183-.887.275-1.543.275M100.467 21.231v-10.11h2.505v1.71c.183-.504.58-.962 1.161-1.36a3.536 3.536 0 0 1 2.138-.61c.596 0 1.054.091 1.39.29v2.535h-.076a3.572 3.572 0 0 0-1.543-.305 4.253 4.253 0 0 0-1.94.397c-.473.214-.855.61-1.053 1.084v6.37h-2.582zM108.837 21.231v-10.11h2.505v1.71c.199-.504.58-.962 1.16-1.36a3.536 3.536 0 0 1 2.139-.61c.596 0 1.054.091 1.39.29v2.535h-.092a3.572 3.572 0 0 0-1.542-.305 4.253 4.253 0 0 0-1.94.397c-.474.214-.855.61-1.054 1.084v6.37h-2.566z"
            fill="#13294B"
          />
          <g transform="translate(116.184 10.845)">
            <path
              d="M8.34 3.1c-.612-.58-1.39-.87-2.414-.87-1.023 0-1.802.29-2.444.87a2.85 2.85 0 0 0-.947 2.215c-.03.855.321 1.665.963 2.23.641.565 1.435.84 2.413.84 1.008 0 1.787-.29 2.413-.87.61-.566.947-1.375.916-2.2a2.905 2.905 0 0 0-.9-2.215m1.817 6.049c-1.1 1.008-2.52 1.512-4.277 1.512-1.756 0-3.177-.489-4.261-1.482S0 6.904 0 5.33c0-1.573.55-2.856 1.665-3.833C2.765.504 4.2 0 5.94 0c1.803 0 3.223.489 4.277 1.466 1.054.978 1.588 2.26 1.573 3.864.015 1.543-.535 2.81-1.634 3.819"
              fill="#13294B"
              mask="url(#jsmha391zb)"
            />
          </g>
          <g>
            <path
              d="M10.11 6.187a.841.841 0 0 0-.686.29c-.611.626-.947 2.505.091 5.682.947 2.917 2.78 6.079 5.224 8.996.336-1.757.504-3.559.488-5.346 0-5.605-2.703-8.767-4.398-9.454a1.972 1.972 0 0 0-.718-.168m14.387 4.582a21.666 21.666 0 0 0-.32 3.727c0 5.116 2.26 9.881 4.276 10.966.611.32.993.198 1.252.03.459-.382.703-1.023.764-1.909.23-3.207-2.245-8.385-5.972-12.814M16.266 22.88c5.682 5.956 11.79 8.033 15.014 6.964 1.65-.55 3.161-2.138 4.26-4.49 1.207-2.566 1.834-5.804 1.834-9.347 0-3.758-.718-7.24-2.032-9.806-1.237-2.428-2.856-3.757-4.566-3.757-2.46 0-4.598 2.459-5.743 6.094 4.582 5.04 7.59 11.226 7.331 15.182-.092 1.42-.61 2.55-1.497 3.268l-.076.061c-.978.657-2.123.687-3.238.092-2.917-1.558-5.285-7.224-5.285-12.631 0-1.833.214-3.666.642-5.453C16.709 2.613 10.707.353 6.75 3.01c-2.962 2-4.871 7.102-4.871 13.013 0 7.637 2.947 13.608 6.72 13.608 2.352 0 4.383-2.443 5.544-6.216-3.04-3.375-5.315-7.148-6.445-10.645-1.115-3.421-.978-6.186.336-7.576.855-.9 2.123-1.115 3.467-.58 2.78 1.115 5.59 5.33 5.59 11.21a27.52 27.52 0 0 1-.825 7.057m13.15 9.118c-4.078 0-9.27-2.643-13.791-7.087a15.73 15.73 0 0 1-.703 1.65c-1.558 3.176-3.803 4.917-6.308 4.917s-4.78-1.71-6.369-4.81C.795 23.842 0 20.038 0 15.976 0 9.364 2.184 3.774 5.712 1.407c2.444-1.65 5.514-1.849 8.89-.596 2.855 1.054 5.94 3.177 8.965 6.17.275-.718.595-1.42.977-2.092 1.589-2.81 3.803-4.353 6.232-4.353 4.841 0 8.492 6.644 8.492 15.456 0 3.819-.703 7.332-2.017 10.157a12.956 12.956 0 0 1-2.306 3.467 7.536 7.536 0 0 1-3.07 2.016c-.81.26-1.619.382-2.459.367"
              fill="#47D7AC"
              mask="url(#g54n1wrhbd)"
            />
          </g>
        </g>
      </svg>