<svg xmlns="http://www.w3.org/2000/svg" xmlns:xlink="http://www.w3.org/1999/xlink" version="1.1" id="Layer_1" x="0px" y="0px" viewBox="0 0 128 40" style="enable-background:new 0 0 128 40;" xml:space="preserve">
<style type="text/css">
	.st0{fill:#FFFFFF;}
	.st1{fill:#61C2A4;}
</style>
<g id="Page-1">
	<g id="white-original">
		<path id="Path" class="st0" d="M45.86,19.58v-8.87h2.2v1.45c0.33-0.52,0.83-0.95,1.39-1.21c0.67-0.32,1.41-0.47,2.16-0.47    c1.81,0,2.89,0.63,3.27,1.89c0.15,0.47,0.21,1.11,0.21,1.94v5.25h-2.22v-4.7c0-0.71-0.08-1.22-0.25-1.5    c-0.27-0.54-0.87-0.8-1.78-0.8c-0.54,0-1.07,0.13-1.57,0.38c-0.47,0.2-0.87,0.54-1.15,0.96v5.68H45.86L45.86,19.58z"/>
		<path id="Shape" class="st0" d="M64.89,19.86c-1.11,0-1.78-0.38-2.04-1.14c-0.68,0.82-1.75,1.23-3.23,1.23    c-1.13,0-2.01-0.25-2.63-0.76c-0.6-0.48-0.95-1.22-0.92-2c0-1.3,0.67-2.14,2-2.53c0.84-0.24,1.9-0.36,3.16-0.36    c0.44,0,0.87,0.04,1.3,0.11v-0.28c0.01-0.38-0.12-0.75-0.36-1.03c-0.32-0.33-0.92-0.5-1.82-0.5c-1.41,0-2.56,0.35-3.47,1.06h-0.07    v-2.01c1.08-0.7,2.42-1.06,4.02-1.06c1.29,0,2.25,0.24,2.89,0.74c0.35,0.27,0.62,0.62,0.78,1.03c0.16,0.42,0.24,0.96,0.24,1.67    c0,0.21,0,0.6-0.01,1.15c0,0.55-0.01,0.94-0.01,1.17c0,0.66,0.03,1.04,0.09,1.18c0.09,0.25,0.33,0.38,0.71,0.38    c0.24,0,0.48-0.03,0.71-0.11v1.82C65.92,19.78,65.47,19.86,64.89,19.86z M62.55,16.05c-0.43-0.07-0.86-0.09-1.29-0.09    c-0.63-0.01-1.25,0.04-1.85,0.17c-0.7,0.16-1.06,0.5-1.06,1.03c0,0.71,0.58,1.07,1.74,1.07c1.1,0,1.92-0.32,2.46-0.98    C62.55,17.02,62.55,16.62,62.55,16.05z"/>
		<path id="Shape_1_" class="st0" d="M67.62,20.31h0.07c1.03,0.76,2.36,1.14,3.96,1.14c1.25,0,2.14-0.28,2.67-0.84    c0.36-0.38,0.54-0.99,0.54-1.86v-0.66c-0.25,0.42-0.68,0.76-1.3,1.06c-0.67,0.29-1.38,0.44-2.12,0.43c-1.42,0-2.57-0.36-3.48-1.08    c-0.91-0.72-1.37-1.78-1.37-3.17c-0.01-0.75,0.13-1.5,0.46-2.18c0.27-0.59,0.68-1.1,1.22-1.49c0.48-0.35,1.03-0.62,1.59-0.79    c0.56-0.17,1.14-0.25,1.73-0.25c0.71-0.01,1.41,0.12,2.08,0.38c0.62,0.25,1.03,0.56,1.23,0.95v-1.07h2.14v7.78    c0,1.26-0.23,2.24-0.7,2.93c-0.83,1.22-2.4,1.84-4.67,1.84c-0.8,0.01-1.61-0.08-2.38-0.27c-0.71-0.17-1.26-0.4-1.65-0.66    L67.62,20.31z M74.79,13.88c-0.23-0.44-0.62-0.8-1.08-1c-0.54-0.24-1.13-0.36-1.73-0.36c-0.79-0.03-1.55,0.21-2.2,0.68    c-0.6,0.46-0.91,1.14-0.91,2.05c0,0.79,0.29,1.38,0.9,1.78c0.64,0.42,1.41,0.63,2.17,0.62c0.59,0,1.18-0.12,1.71-0.36    c0.47-0.19,0.86-0.52,1.13-0.96L74.79,13.88z"/>
		<path id="Shape_2_" class="st0" d="M86.85,19.86c-1.11,0-1.78-0.38-2.04-1.14c-0.67,0.82-1.74,1.23-3.21,1.23    c-1.13,0-2.01-0.25-2.63-0.76c-0.6-0.48-0.95-1.22-0.92-2c0-1.3,0.67-2.14,2-2.53c0.84-0.24,1.9-0.36,3.16-0.36    c0.44,0,0.87,0.04,1.3,0.11v-0.28c0.01-0.38-0.11-0.75-0.36-1.03c-0.32-0.33-0.92-0.5-1.82-0.5c-1.41,0-2.56,0.35-3.46,1.06h-0.08    v-2.01c1.08-0.7,2.42-1.06,4.02-1.06c1.29,0,2.25,0.24,2.89,0.74c0.35,0.27,0.62,0.62,0.78,1.03c0.16,0.42,0.24,0.96,0.24,1.67    c0,0.21,0,0.6-0.01,1.15c-0.01,0.55-0.01,0.94-0.01,1.17c0,0.66,0.03,1.04,0.09,1.18c0.09,0.25,0.33,0.38,0.71,0.38    c0.24,0,0.48-0.03,0.71-0.11v1.82C87.88,19.78,87.42,19.86,86.85,19.86z M84.5,16.05c-0.43-0.07-0.86-0.09-1.29-0.09    c-0.63-0.01-1.25,0.04-1.85,0.17c-0.7,0.16-1.06,0.5-1.06,1.03c0,0.71,0.58,1.07,1.74,1.07c1.1,0,1.92-0.32,2.46-0.98    C84.5,17.02,84.5,16.62,84.5,16.05z"/>
		<path id="Path_1_" class="st0" d="M89.19,19.72v-8.87h2.2v1.5c0.16-0.44,0.51-0.84,1.02-1.19c0.55-0.38,1.21-0.56,1.88-0.54    c0.52,0,0.92,0.08,1.22,0.25v2.22h-0.07c-0.43-0.19-0.88-0.28-1.35-0.27c-0.59-0.01-1.17,0.09-1.7,0.35    c-0.42,0.19-0.75,0.54-0.92,0.95v5.59H89.19z"/>
		<path id="Path_2_" class="st0" d="M96.53,19.72v-8.87h2.2v1.5c0.17-0.44,0.51-0.84,1.02-1.19c0.55-0.38,1.21-0.56,1.88-0.54    c0.52,0,0.92,0.08,1.22,0.25v2.22h-0.08c-0.43-0.19-0.88-0.28-1.35-0.27c-0.59-0.01-1.17,0.09-1.7,0.35    c-0.42,0.19-0.75,0.54-0.92,0.95v5.59H96.53z"/>
		<path id="Shape_3_" class="st0" d="M111.88,18.63c-0.96,0.88-2.21,1.33-3.75,1.33c-1.54,0-2.79-0.43-3.74-1.3    c-0.95-0.87-1.42-2-1.42-3.38s0.48-2.5,1.46-3.36c0.96-0.87,2.22-1.31,3.75-1.31c1.58,0,2.83,0.43,3.75,1.29s1.39,1.98,1.38,3.39    C113.33,16.64,112.85,17.75,111.88,18.63z M110.29,13.33c-0.54-0.51-1.22-0.76-2.12-0.76c-0.9,0-1.58,0.25-2.14,0.76    c-0.55,0.5-0.86,1.21-0.83,1.94c-0.03,0.75,0.28,1.46,0.84,1.96c0.56,0.5,1.26,0.74,2.12,0.74c0.88,0,1.57-0.25,2.12-0.76    c0.54-0.5,0.83-1.21,0.8-1.93C111.1,14.55,110.82,13.84,110.29,13.33L110.29,13.33z"/>
		<path id="Shape_4_" class="st1" d="M26.88,29.16c-3.58,0-8.13-2.32-12.1-6.22c-0.17,0.5-0.39,0.98-0.62,1.45    c-1.37,2.79-3.34,4.31-5.53,4.31s-4.19-1.5-5.59-4.22c-1.27-2.48-1.97-5.81-1.97-9.38c0-5.8,1.92-10.7,5.01-12.78    c2.14-1.45,4.84-1.62,7.8-0.52c2.5,0.92,5.21,2.79,7.86,5.41c0.24-0.63,0.52-1.25,0.86-1.84c1.39-2.46,3.34-3.82,5.47-3.82    c4.25,0,7.45,5.83,7.45,13.56c0,3.35-0.62,6.43-1.77,8.91c-0.51,1.13-1.19,2.14-2.02,3.04c-0.74,0.8-1.66,1.41-2.69,1.77    C28.32,29.07,27.61,29.17,26.88,29.16z M15.35,21.16c4.98,5.22,10.34,7.05,13.17,6.11c1.45-0.48,2.77-1.88,3.74-3.94    c1.06-2.25,1.61-5.09,1.61-8.2c0-3.3-0.63-6.35-1.78-8.6c-1.08-2.13-2.5-3.3-4.01-3.3c-2.16,0-4.03,2.16-5.04,5.34    c4.02,4.42,6.66,9.85,6.43,13.31c-0.08,1.25-0.54,2.24-1.31,2.87l-0.07,0.05c-0.86,0.58-1.86,0.6-2.84,0.08    c-2.56-1.37-4.63-6.34-4.63-11.08c0-1.61,0.19-3.21,0.56-4.78C15.73,3.39,10.47,1.41,7,3.74C4.4,5.49,2.73,9.96,2.73,15.15    c0,6.7,2.59,11.93,5.89,11.93c2.06,0,3.84-2.14,4.86-5.45c-2.67-2.96-4.66-6.27-5.65-9.34c-0.98-3-0.86-5.42,0.29-6.64    c0.75-0.79,1.86-0.98,3.04-0.51c2.44,0.98,4.9,4.67,4.9,9.83C16.1,17.05,15.85,19.14,15.35,21.16z M22.57,10.54    c-0.19,1.07-0.28,2.17-0.28,3.27c0,4.49,1.98,8.67,3.75,9.62c0.54,0.28,0.87,0.17,1.1,0.03c0.4-0.33,0.62-0.9,0.67-1.67    C28,18.97,25.83,14.43,22.57,10.54L22.57,10.54z M9.95,6.52C9.72,6.51,9.49,6.6,9.34,6.78c-0.54,0.55-0.83,2.2,0.08,4.98    c0.83,2.56,2.44,5.33,4.58,7.89c0.29-1.54,0.44-3.12,0.43-4.69c0-4.92-2.37-7.69-3.86-8.29C10.38,6.58,10.16,6.54,9.95,6.52    L9.95,6.52z"/>
	</g>
</g>
</svg>